<svg width="20" height="21" viewBox="0 0 20 21" fill="none" xmlns="http://www.w3.org/2000/svg">
<mask id="mask0_15_7965" style="mask-type:luminance" maskUnits="userSpaceOnUse" x="0" y="0" width="20" height="21">
<path d="M0 0.500059H19.9999V20.5H0V0.500059Z" fill="white"/>
</mask>
<g mask="url(#mask0_15_7965)">
<path d="M9.99999 14.0156C8.06136 14.0156 6.48438 12.4386 6.48438 10.5C6.48438 8.56138 8.06136 6.9844 9.99999 6.9844C11.9386 6.9844 13.5156 8.56138 13.5156 10.5C13.5156 12.4386 11.9386 14.0156 9.99999 14.0156Z" stroke="black" stroke-miterlimit="10" stroke-linecap="round" stroke-linejoin="round"/>
<path d="M3.35938 18.7864V17.1291C5.05695 18.8267 7.41534 19.9141 9.99998 19.9141C15.1693 19.9141 19.414 15.6693 19.414 10.5C19.414 9.34226 19.164 8.23281 18.7784 7.20812" stroke="black" stroke-miterlimit="10" stroke-linecap="round" stroke-linejoin="round"/>
<path d="M16.996 9.32815C15.458 9.32815 14.7136 7.44366 15.7755 6.38175L15.8005 6.35683L14.1432 4.69953L14.1182 4.72441C13.0307 5.81207 11.1719 5.00562 11.1719 3.50407V3.46879H8.82811V3.50407C8.82811 5.04199 6.94354 5.78636 5.88179 4.72441L5.85683 4.69953L4.19949 6.35683L4.22449 6.38175C5.31437 7.47163 4.50285 9.32815 3.00402 9.32815H2.96875V11.6719H3.00402C4.54249 11.6719 5.28609 13.5566 4.22449 14.6183L4.19949 14.6432L5.85683 16.3005L5.88179 16.2756C6.96925 15.1879 8.82811 15.9943 8.82811 17.496V17.5312H11.1719V17.496C11.1719 15.958 13.0564 15.2136 14.1182 16.2756L14.1432 16.3005L15.8005 14.6432L15.7755 14.6183C15.2854 14.1281 15.1402 13.3893 15.4086 12.7501C15.683 12.088 16.3059 11.6719 16.996 11.6719H17.0312V9.32815H16.996Z" stroke="black" stroke-miterlimit="10" stroke-linecap="round" stroke-linejoin="round"/>
<path d="M1.22152 13.792C0.836015 12.7673 0.585938 11.6579 0.585938 10.5001C0.585938 5.33081 4.83073 1.08605 9.99997 1.08605C12.5846 1.08605 14.9398 2.17652 16.6375 3.87409L16.6406 2.21367" stroke="black" stroke-miterlimit="10" stroke-linecap="round" stroke-linejoin="round"/>
</g>
</svg>
