<svg width="42" height="40" viewBox="0 0 42 40" fill="none" xmlns="http://www.w3.org/2000/svg">
<rect x="0.5" width="40.8511" height="40" rx="6" fill="#F2993F"/>
<mask id="mask0_33_397" style="mask-type:luminance" maskUnits="userSpaceOnUse" x="11" y="11" width="20" height="19">
<path d="M11.5625 11.0637H30.2859V29.7871H11.5625V11.0637Z" fill="white"/>
</mask>
<g mask="url(#mask0_33_397)">
<path d="M20.924 23.7168C19.1091 23.7168 17.6328 22.2405 17.6328 20.4256C17.6328 18.6107 19.1091 17.1344 20.924 17.1344C22.7389 17.1344 24.2153 18.6107 24.2153 20.4256C24.2153 22.2405 22.7389 23.7168 20.924 23.7168Z" stroke="white" stroke-width="1.1" stroke-miterlimit="10" stroke-linecap="round" stroke-linejoin="round"/>
<path d="M14.707 28.1826V26.6311C16.2963 28.2203 18.5041 29.2383 20.9238 29.2383C25.7631 29.2383 29.7369 25.2645 29.7369 20.4251C29.7369 19.3412 29.5029 18.3026 29.1419 17.3433" stroke="white" stroke-width="1.1" stroke-miterlimit="10" stroke-linecap="round" stroke-linejoin="round"/>
<path d="M27.4718 19.3283C26.032 19.3283 25.3351 17.5641 26.3292 16.57L26.3526 16.5466L24.801 14.9951L24.7777 15.0184C23.7596 16.0366 22.0194 15.2817 22.0194 13.8759V13.8429H19.8252V13.8759C19.8252 15.3157 18.0609 16.0126 17.067 15.0184L17.0436 14.9951L15.492 16.5466L15.5154 16.57C16.5357 17.5903 15.776 19.3283 14.3729 19.3283H14.3398V21.5224H14.3729C15.8131 21.5224 16.5093 23.2869 15.5154 24.2807L15.492 24.3041L17.0436 25.8556L17.067 25.8323C18.085 24.814 19.8252 25.569 19.8252 26.9748V27.0078H22.0194V26.9748C22.0194 25.535 23.7836 24.8381 24.7777 25.8323L24.801 25.8556L26.3526 24.3041L26.3292 24.2807C25.8703 23.8218 25.7345 23.1302 25.9857 22.5319C26.2426 21.912 26.8257 21.5224 27.4718 21.5224H27.5047V19.3283H27.4718Z" stroke="white" stroke-width="1.1" stroke-miterlimit="10" stroke-linecap="round" stroke-linejoin="round"/>
<path d="M12.7044 23.5059C12.3435 22.5466 12.1094 21.5079 12.1094 20.4241C12.1094 15.5847 16.0832 11.6109 20.9225 11.6109C23.3422 11.6109 25.5471 12.6318 27.1364 14.221L27.1393 12.6665" stroke="white" stroke-width="1.1" stroke-miterlimit="10" stroke-linecap="round" stroke-linejoin="round"/>
</g>
</svg>
