<?xml version="1.0" encoding="utf-8"?>
<!-- Generator: Adobe Illustrator 26.0.1, SVG Export Plug-In . SVG Version: 6.00 Build 0)  -->
<svg version="1.1" id="Layer_1" xmlns="http://www.w3.org/2000/svg" xmlns:xlink="http://www.w3.org/1999/xlink" x="0px" y="0px"
	 viewBox="0 0 20 21" style="enable-background:new 0 0 20 21;" xml:space="preserve">
<style type="text/css">
	.st0{fill:#FFFFFF;filter:url(#Adobe_OpacityMaskFilter);}
	.st1{mask:url(#mask0_15_7965_00000029737761464228612580000002029627690510157240_);}
	.st2{fill:none;stroke:#FFFFFF;stroke-linecap:round;stroke-linejoin:round;stroke-miterlimit:10;}
</style>
<defs>
	<filter id="Adobe_OpacityMaskFilter" filterUnits="userSpaceOnUse" x="0.1" y="0.6" width="19.8" height="19.8">
		<feColorMatrix  type="matrix" values="1 0 0 0 0  0 1 0 0 0  0 0 1 0 0  0 0 0 1 0"/>
	</filter>
</defs>
<mask maskUnits="userSpaceOnUse" x="0.1" y="0.6" width="19.8" height="19.8" id="mask0_15_7965_00000029737761464228612580000002029627690510157240_">
	<path class="st0" d="M0,0.5h20v20H0V0.5z"/>
</mask>
<g class="st1">
	<path class="st2" d="M10,14c-1.9,0-3.5-1.6-3.5-3.5C6.5,8.6,8.1,7,10,7c1.9,0,3.5,1.6,3.5,3.5C13.5,12.4,11.9,14,10,14z"/>
	<path class="st2" d="M3.4,18.8v-1.7c1.7,1.7,4.1,2.8,6.6,2.8c5.2,0,9.4-4.2,9.4-9.4c0-1.2-0.2-2.3-0.6-3.3"/>
	<path class="st2" d="M17,9.3c-1.5,0-2.3-1.9-1.2-2.9l0,0l-1.7-1.7l0,0C13,5.8,11.2,5,11.2,3.5v0H8.8v0c0,1.5-1.9,2.3-2.9,1.2l0,0
		L4.2,6.4l0,0C5.3,7.5,4.5,9.3,3,9.3h0v2.3h0c1.5,0,2.3,1.9,1.2,2.9l0,0l1.7,1.7l0,0C7,15.2,8.8,16,8.8,17.5v0h2.3v0
		c0-1.5,1.9-2.3,2.9-1.2l0,0l1.7-1.7l0,0c-0.5-0.5-0.6-1.2-0.4-1.9c0.3-0.7,0.9-1.1,1.6-1.1h0L17,9.3L17,9.3z"/>
	<path class="st2" d="M1.2,13.8c-0.4-1-0.6-2.1-0.6-3.3c0-5.2,4.2-9.4,9.4-9.4c2.6,0,4.9,1.1,6.6,2.8l0-1.7"/>
</g>
</svg>
