<svg width="28" height="27" viewBox="0 0 28 27" fill="none" xmlns="http://www.w3.org/2000/svg">
<path d="M2 13.5C2 16.6826 3.26428 19.7348 5.51472 21.9853C7.76516 24.2357 10.8174 25.5 14 25.5C17.1826 25.5 20.2348 24.2357 22.4853 21.9853C24.7357 19.7348 26 16.6826 26 13.5C26 10.3174 24.7357 7.26516 22.4853 5.01472C20.2348 2.76428 17.1826 1.5 14 1.5" stroke="#6FC184" stroke-width="3" stroke-linecap="round" stroke-linejoin="round"/>
<path d="M20.6668 13.5C20.6668 12.1815 20.2758 10.8926 19.5433 9.79624C18.8108 8.69991 17.7696 7.84543 16.5514 7.34085C15.3332 6.83626 13.9928 6.70424 12.6996 6.96148C11.4064 7.21871 10.2185 7.85365 9.28612 8.786C8.35377 9.71835 7.71883 10.9062 7.4616 12.1994C7.20436 13.4926 7.33638 14.8331 7.84097 16.0513C8.34555 17.2694 9.20004 18.3106 10.2964 19.0432C11.3927 19.7757 12.6816 20.1667 14.0002 20.1667" stroke="#6FC184" stroke-width="3" stroke-linecap="round" stroke-linejoin="round"/>
</svg>
