<svg width="18" height="18" viewBox="0 0 18 18" fill="none" xmlns="http://www.w3.org/2000/svg">
<path d="M12.7812 17.75H5.21875C3.1625 17.75 1.5 16.0875 1.5 14.0312V6.51875C1.5 4.4375 3.1875 2.75 5.26875 2.75H12.7375C14.8125 2.75 16.5 4.4375 16.5 6.51875V14.0375C16.5 16.0875 14.8375 17.75 12.7812 17.75Z" fill="url(#paint0_radial_15_974)"/>
<path d="M1.5 6.5C1.5 5.50544 1.89509 4.55161 2.59835 3.84835C3.30161 3.14509 4.25544 2.75 5.25 2.75H6.5V17.75H5.25C4.25544 17.75 3.30161 17.3549 2.59835 16.6517C1.89509 15.9484 1.5 14.9946 1.5 14V6.5Z" fill="url(#paint1_linear_15_974)"/>
<path d="M1.5 14H16.5C16.5 14.9946 16.1049 15.9484 15.4017 16.6517C14.6984 17.3549 13.7446 17.75 12.75 17.75H5.25C4.25544 17.75 3.30161 17.3549 2.59835 16.6517C1.89509 15.9484 1.5 14.9946 1.5 14Z" fill="url(#paint2_linear_15_974)"/>
<path d="M11.5 2.75H12.75C13.7446 2.75 14.6984 3.14509 15.4017 3.84835C16.1049 4.55161 16.5 5.50544 16.5 6.5V14C16.5 14.9946 16.1049 15.9484 15.4017 16.6517C14.6984 17.3549 13.7446 17.75 12.75 17.75H11.5V2.75Z" fill="url(#paint3_radial_15_974)"/>
<path d="M1.1875 1.46875V7.15625" stroke="url(#paint4_linear_15_974)" stroke-miterlimit="10"/>
<path d="M1.5 6.5V13.375C0.8125 13.375 0.25 12.8125 0.25 12.1263V7.74875C0.25 7.0625 0.8125 6.5 1.5 6.5Z" fill="url(#paint5_linear_15_974)"/>
<path d="M13.2206 10.5625H4.77937C4.07557 10.5608 3.4011 10.2804 2.90361 9.78256C2.40612 9.28472 2.12616 8.61005 2.125 7.90625C2.12616 7.20245 2.40612 6.52778 2.90361 6.02994C3.4011 5.5321 4.07557 5.25165 4.77937 5.25H13.2206C13.9244 5.25165 14.5989 5.5321 15.0964 6.02994C15.5939 6.52778 15.8738 7.20245 15.875 7.90625C15.875 9.36312 14.6763 10.5625 13.2206 10.5625Z" fill="url(#paint6_linear_15_974)"/>
<path d="M10.58 15.25H7.42C6.9125 15.25 6.5 14.8288 6.5 14.3125C6.5 13.7963 6.9125 13.375 7.42 13.375H10.58C11.0869 13.375 11.5 13.7963 11.5 14.3125C11.5 14.8288 11.0875 15.25 10.58 15.25Z" fill="url(#paint7_linear_15_974)"/>
<path d="M1.1875 2.125C1.31061 2.125 1.43252 2.10075 1.54627 2.05364C1.66001 2.00652 1.76336 1.93747 1.85041 1.85041C1.93747 1.76336 2.00652 1.66001 2.05364 1.54627C2.10075 1.43252 2.125 1.31061 2.125 1.1875C2.125 1.06439 2.10075 0.942477 2.05364 0.828734C2.00652 0.714992 1.93747 0.611642 1.85041 0.524587C1.76336 0.437532 1.66001 0.368477 1.54627 0.321363C1.43252 0.274249 1.31061 0.25 1.1875 0.25C0.93886 0.25 0.700403 0.348772 0.524587 0.524587C0.348772 0.700403 0.25 0.93886 0.25 1.1875C0.25 1.43614 0.348772 1.6746 0.524587 1.85041C0.700403 2.02623 0.93886 2.125 1.1875 2.125Z" fill="url(#paint8_radial_15_974)"/>
<path d="M16.8125 1.5V7.18125" stroke="url(#paint9_linear_15_974)" stroke-miterlimit="10"/>
<path d="M16.8125 2.1875C17.0694 2.1875 17.3158 2.08544 17.4975 1.90376C17.6792 1.72208 17.7812 1.47568 17.7812 1.21875C17.7812 0.961821 17.6792 0.715416 17.4975 0.53374C17.3158 0.352064 17.0694 0.25 16.8125 0.25C16.5556 0.25 16.3092 0.352064 16.1275 0.53374C15.9458 0.715416 15.8438 0.961821 15.8438 1.21875C15.8438 1.47568 15.9458 1.72208 16.1275 1.90376C16.3092 2.08544 16.5556 2.1875 16.8125 2.1875Z" fill="url(#paint10_radial_15_974)"/>
<path d="M4.9375 6.5H4.625C3.93464 6.5 3.375 7.05964 3.375 7.75V9C3.375 9.69036 3.93464 10.25 4.625 10.25H4.9375C5.62786 10.25 6.1875 9.69036 6.1875 9V7.75C6.1875 7.05964 5.62786 6.5 4.9375 6.5Z" fill="url(#paint11_radial_15_974)"/>
<path d="M12.125 6.5H11.8125C11.1221 6.5 10.5625 7.05964 10.5625 7.75V9C10.5625 9.69036 11.1221 10.25 11.8125 10.25H12.125C12.8154 10.25 13.375 9.69036 13.375 9V7.75C13.375 7.05964 12.8154 6.5 12.125 6.5Z" fill="url(#paint12_radial_15_974)"/>
<path d="M11.1875 0.875H6.8125C6.29473 0.875 5.875 1.29473 5.875 1.8125C5.875 2.33027 6.29473 2.75 6.8125 2.75H11.1875C11.7053 2.75 12.125 2.33027 12.125 1.8125C12.125 1.29473 11.7053 0.875 11.1875 0.875Z" fill="url(#paint13_linear_15_974)"/>
<path d="M11.1875 0.875H6.8125C6.29473 0.875 5.875 1.29473 5.875 1.8125C5.875 2.33027 6.29473 2.75 6.8125 2.75H11.1875C11.7053 2.75 12.125 2.33027 12.125 1.8125C12.125 1.29473 11.7053 0.875 11.1875 0.875Z" fill="url(#paint14_radial_15_974)"/>
<path d="M16.5 13.3373V6.45605C17.1875 6.45605 17.75 7.01855 17.75 7.70605V12.0873C17.75 12.7748 17.1875 13.3373 16.5 13.3373Z" fill="url(#paint15_linear_15_974)"/>
<path d="M6.1875 7.28125C6.1875 6.84978 5.83772 6.5 5.40625 6.5C4.97478 6.5 4.625 6.84978 4.625 7.28125V8.84375C4.625 9.27522 4.97478 9.625 5.40625 9.625C5.83772 9.625 6.1875 9.27522 6.1875 8.84375V7.28125Z" fill="url(#paint16_linear_15_974)"/>
<path d="M6.1875 7.28125C6.1875 6.84978 5.83772 6.5 5.40625 6.5C4.97478 6.5 4.625 6.84978 4.625 7.28125V8.84375C4.625 9.27522 4.97478 9.625 5.40625 9.625C5.83772 9.625 6.1875 9.27522 6.1875 8.84375V7.28125Z" fill="url(#paint17_radial_15_974)"/>
<path d="M13.375 7.28125C13.375 6.84978 13.0252 6.5 12.5938 6.5C12.1623 6.5 11.8125 6.84978 11.8125 7.28125V8.84375C11.8125 9.27522 12.1623 9.625 12.5938 9.625C13.0252 9.625 13.375 9.27522 13.375 8.84375V7.28125Z" fill="url(#paint18_linear_15_974)"/>
<path d="M13.375 7.28125C13.375 6.84978 13.0252 6.5 12.5938 6.5C12.1623 6.5 11.8125 6.84978 11.8125 7.28125V8.84375C11.8125 9.27522 12.1623 9.625 12.5938 9.625C13.0252 9.625 13.375 9.27522 13.375 8.84375V7.28125Z" fill="url(#paint19_radial_15_974)"/>
<g filter="url(#filter0_f_15_974)">
<path d="M1.26562 2.125V5.875" stroke="url(#paint20_linear_15_974)" stroke-width="0.25"/>
</g>
<g filter="url(#filter1_f_15_974)">
<path d="M16.8906 2.125V5.875" stroke="url(#paint21_linear_15_974)" stroke-width="0.25"/>
</g>
<path d="M17.125 8.375C17.4702 8.375 17.75 7.95527 17.75 7.4375C17.75 6.91973 17.4702 6.5 17.125 6.5C16.7798 6.5 16.5 6.91973 16.5 7.4375C16.5 7.95527 16.7798 8.375 17.125 8.375Z" fill="url(#paint22_radial_15_974)"/>
<path d="M17.125 12.125C17.4702 12.125 17.75 10.8658 17.75 9.3125C17.75 7.7592 17.4702 6.5 17.125 6.5C16.7798 6.5 16.5 7.7592 16.5 9.3125C16.5 10.8658 16.7798 12.125 17.125 12.125Z" fill="url(#paint23_radial_15_974)"/>
<path fill-rule="evenodd" clip-rule="evenodd" d="M11.3595 0.890625C11.5455 0.925484 11.7165 1.01576 11.8503 1.14961C11.984 1.28346 12.0741 1.45462 12.1089 1.64062C12.0837 1.74926 12.0299 1.84917 11.9531 1.93001C11.8763 2.01084 11.7792 2.06966 11.672 2.10035C11.5648 2.13103 11.4513 2.13248 11.3434 2.10454C11.2354 2.07659 11.1369 2.02027 11.0581 1.94142C10.9792 1.86257 10.9229 1.76406 10.8949 1.6561C10.867 1.54815 10.8684 1.43468 10.8991 1.32748C10.9298 1.22027 10.9886 1.12323 11.0695 1.04641C11.1503 0.969597 11.2508 0.915808 11.3595 0.890625Z" fill="url(#paint24_radial_15_974)"/>
<defs>
<filter id="filter0_f_15_974" x="0.640625" y="1.625" width="1.25" height="4.75" filterUnits="userSpaceOnUse" color-interpolation-filters="sRGB">
<feFlood flood-opacity="0" result="BackgroundImageFix"/>
<feBlend mode="normal" in="SourceGraphic" in2="BackgroundImageFix" result="shape"/>
<feGaussianBlur stdDeviation="0.25" result="effect1_foregroundBlur_15_974"/>
</filter>
<filter id="filter1_f_15_974" x="16.2656" y="1.625" width="1.25" height="4.75" filterUnits="userSpaceOnUse" color-interpolation-filters="sRGB">
<feFlood flood-opacity="0" result="BackgroundImageFix"/>
<feBlend mode="normal" in="SourceGraphic" in2="BackgroundImageFix" result="shape"/>
<feGaussianBlur stdDeviation="0.25" result="effect1_foregroundBlur_15_974"/>
</filter>
<radialGradient id="paint0_radial_15_974" cx="0" cy="0" r="1" gradientUnits="userSpaceOnUse" gradientTransform="translate(14.6249 6.18759) rotate(141.911) scale(14.6908)">
<stop stop-color="#EEEBF0"/>
<stop offset="0.493" stop-color="#D1BEE3"/>
<stop offset="1" stop-color="#D0BCE2"/>
</radialGradient>
<linearGradient id="paint1_linear_15_974" x1="6.5" y1="10.25" x2="1.5" y2="10.25" gradientUnits="userSpaceOnUse">
<stop stop-color="#D5B2C0" stop-opacity="0"/>
<stop offset="1" stop-color="#B4878D"/>
</linearGradient>
<linearGradient id="paint2_linear_15_974" x1="9" y1="15.875" x2="9" y2="18.375" gradientUnits="userSpaceOnUse">
<stop stop-color="#B17EDB" stop-opacity="0"/>
<stop offset="1" stop-color="#A56BD6"/>
</linearGradient>
<radialGradient id="paint3_radial_15_974" cx="0" cy="0" r="1" gradientUnits="userSpaceOnUse" gradientTransform="translate(14.625 7.4375) rotate(-5.71059) scale(3.14059 12.004)">
<stop stop-color="#F0EAF6"/>
<stop offset="1" stop-color="#E7E0EF" stop-opacity="0"/>
</radialGradient>
<linearGradient id="paint4_linear_15_974" x1="-nan" y1="-nan" x2="-nan" y2="-nan" gradientUnits="userSpaceOnUse">
<stop stop-color="#EA248A"/>
<stop offset="1" stop-color="#DF2232"/>
</linearGradient>
<linearGradient id="paint5_linear_15_974" x1="0.875" y1="6.5" x2="0.875" y2="13.375" gradientUnits="userSpaceOnUse">
<stop stop-color="#E93273"/>
<stop offset="1" stop-color="#D21844"/>
</linearGradient>
<linearGradient id="paint6_linear_15_974" x1="8.99875" y1="10.0631" x2="8.99875" y2="6.11937" gradientUnits="userSpaceOnUse">
<stop offset="0.006" stop-color="#443E75"/>
<stop offset="1" stop-color="#2F1A3B"/>
</linearGradient>
<linearGradient id="paint7_linear_15_974" x1="8.99875" y1="15.0538" x2="8.99875" y2="13.3056" gradientUnits="userSpaceOnUse">
<stop offset="0.006" stop-color="#39325E"/>
<stop offset="1" stop-color="#2B1831"/>
</linearGradient>
<radialGradient id="paint8_radial_15_974" cx="0" cy="0" r="1" gradientUnits="userSpaceOnUse" gradientTransform="translate(1.5 0.875) rotate(104.036) scale(1.28847)">
<stop stop-color="#FF6C82"/>
<stop offset="0.441" stop-color="#FF2455"/>
<stop offset="1" stop-color="#D9206C"/>
</radialGradient>
<linearGradient id="paint9_linear_15_974" x1="-nan" y1="-nan" x2="-nan" y2="-nan" gradientUnits="userSpaceOnUse">
<stop stop-color="#EA248A"/>
<stop offset="1" stop-color="#DF2232"/>
</linearGradient>
<radialGradient id="paint10_radial_15_974" cx="0" cy="0" r="1" gradientUnits="userSpaceOnUse" gradientTransform="translate(17.135 0.895551) rotate(104.036) scale(1.33142)">
<stop stop-color="#FF6C82"/>
<stop offset="0.441" stop-color="#FF2455"/>
<stop offset="1" stop-color="#D9206C"/>
</radialGradient>
<radialGradient id="paint11_radial_15_974" cx="0" cy="0" r="1" gradientUnits="userSpaceOnUse" gradientTransform="translate(4.9375 8.375) rotate(168.69) scale(1.59344 2.1807)">
<stop stop-color="#322649"/>
<stop offset="1" stop-color="#342950" stop-opacity="0"/>
</radialGradient>
<radialGradient id="paint12_radial_15_974" cx="0" cy="0" r="1" gradientUnits="userSpaceOnUse" gradientTransform="translate(12.125 8.375) rotate(168.69) scale(1.59344 2.1807)">
<stop stop-color="#322649"/>
<stop offset="1" stop-color="#342950" stop-opacity="0"/>
</radialGradient>
<linearGradient id="paint13_linear_15_974" x1="9" y1="0.875" x2="8.0625" y2="3.0625" gradientUnits="userSpaceOnUse">
<stop stop-color="#FFCE2B"/>
<stop offset="1" stop-color="#D9862D"/>
</linearGradient>
<radialGradient id="paint14_radial_15_974" cx="0" cy="0" r="1" gradientUnits="userSpaceOnUse" gradientTransform="translate(9 1.5) rotate(90) scale(1.875 6.25)">
<stop offset="0.431" stop-color="#CA7E29" stop-opacity="0"/>
<stop offset="1" stop-color="#673F13"/>
</radialGradient>
<linearGradient id="paint15_linear_15_974" x1="17.125" y1="6.45605" x2="17.125" y2="13.3373" gradientUnits="userSpaceOnUse">
<stop stop-color="#FF30AA"/>
<stop offset="1" stop-color="#FF2353"/>
</linearGradient>
<linearGradient id="paint16_linear_15_974" x1="6.1875" y1="7.75" x2="4.625" y2="7.75" gradientUnits="userSpaceOnUse">
<stop stop-color="#29B6FE"/>
<stop offset="1" stop-color="#1769A8"/>
</linearGradient>
<radialGradient id="paint17_radial_15_974" cx="0" cy="0" r="1" gradientUnits="userSpaceOnUse" gradientTransform="translate(5.875 7.4375) rotate(90) scale(1.5625 0.714956)">
<stop stop-color="#54C8FF"/>
<stop offset="1" stop-color="#54C8FF" stop-opacity="0"/>
</radialGradient>
<linearGradient id="paint18_linear_15_974" x1="13.375" y1="7.75" x2="11.8125" y2="7.75" gradientUnits="userSpaceOnUse">
<stop stop-color="#29B6FE"/>
<stop offset="1" stop-color="#1769A8"/>
</linearGradient>
<radialGradient id="paint19_radial_15_974" cx="0" cy="0" r="1" gradientUnits="userSpaceOnUse" gradientTransform="translate(13.0625 7.4375) rotate(90) scale(1.5625 0.714956)">
<stop stop-color="#54C8FF"/>
<stop offset="1" stop-color="#54C8FF" stop-opacity="0"/>
</radialGradient>
<linearGradient id="paint20_linear_15_974" x1="-nan" y1="-nan" x2="-nan" y2="-nan" gradientUnits="userSpaceOnUse">
<stop stop-color="#FF96CB"/>
<stop offset="1" stop-color="#FF6DB7" stop-opacity="0"/>
</linearGradient>
<linearGradient id="paint21_linear_15_974" x1="-nan" y1="-nan" x2="-nan" y2="-nan" gradientUnits="userSpaceOnUse">
<stop stop-color="#FF96CB"/>
<stop offset="1" stop-color="#FF6DB7" stop-opacity="0"/>
</linearGradient>
<radialGradient id="paint22_radial_15_974" cx="0" cy="0" r="1" gradientUnits="userSpaceOnUse" gradientTransform="translate(17.125 7.4375) rotate(90) scale(0.9375 0.625)">
<stop stop-color="#FF72C1"/>
<stop offset="1" stop-color="#FF6EBF" stop-opacity="0"/>
</radialGradient>
<radialGradient id="paint23_radial_15_974" cx="0" cy="0" r="1" gradientUnits="userSpaceOnUse" gradientTransform="translate(17.125 9.3125) rotate(90) scale(2.8125 0.34965)">
<stop stop-color="#FF4B9C"/>
<stop offset="1" stop-color="#FF73C1" stop-opacity="0"/>
</radialGradient>
<radialGradient id="paint24_radial_15_974" cx="0" cy="0" r="1" gradientUnits="userSpaceOnUse" gradientTransform="translate(11.4995 1.5) rotate(90) scale(0.625)">
<stop stop-color="#FFEA60"/>
<stop offset="1" stop-color="#FFEF66" stop-opacity="0"/>
</radialGradient>
</defs>
</svg>
