<?xml version="1.0" encoding="utf-8"?>
<!-- Generator: Adobe Illustrator 26.0.1, SVG Export Plug-In . SVG Version: 6.00 Build 0)  -->
<svg version="1.1" id="Layer_1" xmlns="http://www.w3.org/2000/svg" xmlns:xlink="http://www.w3.org/1999/xlink" x="0px" y="0px"
	 viewBox="0 0 20 21" style="enable-background:new 0 0 20 21;" xml:space="preserve">
<style type="text/css">
	.st0{fill:#FFFFFF;filter:url(#Adobe_OpacityMaskFilter);}
	.st1{mask:url(#mask0_15_7952_00000026128944064666977530000005728120441236430472_);}
	.st2{fill:none;stroke:#FFFFFF;stroke-linecap:round;stroke-linejoin:round;stroke-miterlimit:10;}
</style>
<defs>
	<filter id="Adobe_OpacityMaskFilter" filterUnits="userSpaceOnUse" x="0.1" y="0.6" width="19.8" height="19.8">
		<feColorMatrix  type="matrix" values="1 0 0 0 0  0 1 0 0 0  0 0 1 0 0  0 0 0 1 0"/>
	</filter>
</defs>
<mask maskUnits="userSpaceOnUse" x="0.1" y="0.6" width="19.8" height="19.8" id="mask0_15_7952_00000026128944064666977530000005728120441236430472_">
	<path class="st0" d="M0,0.5h20v20H0V0.5z"/>
</mask>
<g class="st1">
	<path class="st2" d="M10,16.6c-3.4,0-6.1-2.7-6.1-6.1c0-3.4,2.7-6.1,6.1-6.1c3.4,0,6.1,2.7,6.1,6.1C16.1,13.9,13.4,16.6,10,16.6z"
		/>
	<path class="st2" d="M10,13.1c-1.4,0-2.6-1.2-2.6-2.6c0-1.4,1.2-2.6,2.6-2.6c1.4,0,2.6,1.2,2.6,2.6C12.6,11.9,11.4,13.1,10,13.1z"
		/>
	<path class="st2" d="M10,10.5l4.3-4.3"/>
	<path class="st2" d="M19.1,3.9l-2.5,2.5l-2.3-0.2l-0.2-2.3l2.5-2.5l0.2,2.3L19.1,3.9z"/>
	<path class="st2" d="M17.8,5.2l-1.2,1.2l-2.3-0.2l-0.2-2.3l1.2-1.2c-1.5-1-3.3-1.6-5.3-1.6c-5.2,0-9.4,4.2-9.4,9.4
		c0,5.2,4.2,9.4,9.4,9.4c5.2,0,9.4-4.2,9.4-9.4C19.4,8.5,18.8,6.7,17.8,5.2z"/>
</g>
</svg>
