<?xml version="1.0" encoding="utf-8"?>
<!-- Generator: Adobe Illustrator 26.0.1, SVG Export Plug-In . SVG Version: 6.00 Build 0)  -->
<svg version="1.1" id="Layer_1" xmlns="http://www.w3.org/2000/svg" xmlns:xlink="http://www.w3.org/1999/xlink" x="0px" y="0px"
	 viewBox="0 0 20 21" style="enable-background:new 0 0 20 21;" xml:space="preserve">
<style type="text/css">
	.st0{fill:#FFFFFF;filter:url(#Adobe_OpacityMaskFilter);}
	.st1{mask:url(#mask0_15_7942_00000078034417214895241380000018050266031512190369_);}
	.st2{fill:none;stroke:#FFFFFF;stroke-miterlimit:10;}
</style>
<defs>
	<filter id="Adobe_OpacityMaskFilter" filterUnits="userSpaceOnUse" x="0.1" y="0.6" width="19.8" height="19.8">
		<feColorMatrix  type="matrix" values="1 0 0 0 0  0 1 0 0 0  0 0 1 0 0  0 0 0 1 0"/>
	</filter>
</defs>
<mask maskUnits="userSpaceOnUse" x="0.1" y="0.6" width="19.8" height="19.8" id="mask0_15_7942_00000078034417214895241380000018050266031512190369_">
	<path class="st0" d="M0,0.5h20v20H0V0.5z"/>
</mask>
<g class="st1">
	<path class="st2" d="M10,2.7L10,2.7c0.2-0.4,0.8-1.6,2.1-1.6c1.1,0,2,1,2,2.1c0.1,1.7-1.6,2.8-4.1,5C7.5,6,5.8,4.9,5.9,3.2
		c0-1.1,1-2.1,2.1-2.1C9.3,1.1,9.8,2.3,10,2.7L10,2.7z"/>
	<path class="st2" d="M10,18.7v-4.2 M10,14.5c0-0.6-0.2-1.2-0.7-1.7L6.1,9.7c-0.5-0.5-1.2-0.5-1.7,0c-0.5,0.5-0.5,1.2,0,1.7l2,2
		l-3.2-3.2C3.2,10,3.1,9.9,3,9.8C3,9.6,2.9,9.5,2.9,9.3V5.8c0-0.6-0.5-1.2-1.2-1.2S0.6,5.2,0.6,5.8V11c0,0.4,0.1,0.8,0.3,1.2L5.5,17
		c0.2,0.4,0.3,0.8,0.3,1.2v1.7H10 M10,14.5v5.4 M10,14.5c0-0.6,0.2-1.2,0.7-1.7l3.2-3.2c0.5-0.5,1.2-0.5,1.7,0
		c0.5,0.5,0.5,1.2,0,1.7l-2,2l3.2-3.2c0.1-0.1,0.2-0.2,0.3-0.4s0.1-0.3,0.1-0.4V5.8c0-0.6,0.5-1.2,1.2-1.2c0.6,0,1.2,0.5,1.2,1.2V11
		c0,0.4-0.1,0.8-0.3,1.2L14.5,17c-0.2,0.4-0.3,0.8-0.3,1.2v1.7H10"/>
</g>
</svg>
