<svg width="20" height="21" viewBox="0 0 20 21" fill="none" xmlns="http://www.w3.org/2000/svg">
<mask id="mask0_15_7942" style="mask-type:luminance" maskUnits="userSpaceOnUse" x="0" y="0" width="20" height="21">
<path d="M0 0.50001H20V20.5H0V0.50001Z" fill="white"/>
</mask>
<g mask="url(#mask0_15_7942)">
<path d="M9.99197 2.73086H10.0289C10.1669 2.34426 10.7513 1.09664 12.0427 1.08602C13.1579 1.07688 14.0401 2.07086 14.0854 3.1852C14.155 4.89438 12.447 6.02852 9.99197 8.15625C7.53682 6.02848 5.82896 4.89438 5.89853 3.18524C5.94385 2.07086 6.86502 1.07688 7.98025 1.08602C9.27174 1.0966 9.81701 2.34426 9.95502 2.73086H9.99197Z" stroke="black" stroke-miterlimit="10"/>
<path d="M10 18.7422V14.5012M10 14.5012C9.99999 13.8796 9.75308 13.2835 9.31355 12.8439L6.10199 9.67145C5.64422 9.21368 4.90265 9.21368 4.44488 9.67145C3.98711 10.1292 3.98711 10.8708 4.44488 11.3286L6.44531 13.329L3.27293 10.1566C3.16411 10.0478 3.07779 9.91858 3.01889 9.77641C2.96 9.63424 2.92969 9.48186 2.92969 9.32797V5.81251C2.92969 5.16532 2.405 4.64063 1.75781 4.64063C1.11062 4.64063 0.585938 5.16532 0.585938 5.81251V11.0227C0.585924 11.4475 0.701381 11.8643 0.919961 12.2285L5.52535 16.9746C5.74393 17.3388 5.85939 17.7556 5.85937 18.1804V19.9141H10M10 14.5012V19.9141M10 14.5012C10 13.8796 10.2469 13.2835 10.6864 12.8439L13.898 9.67145C14.3558 9.21368 15.0973 9.21368 15.5551 9.67145C16.0129 10.1292 16.0129 10.8708 15.5551 11.3286L13.5547 13.329L16.7271 10.1566C16.8359 10.0478 16.9222 9.91858 16.9811 9.77641C17.04 9.63424 17.0703 9.48186 17.0703 9.32797V5.81251C17.0703 5.16532 17.595 4.64063 18.2422 4.64063C18.8894 4.64063 19.4141 5.16532 19.4141 5.81251V11.0227C19.4141 11.4475 19.2986 11.8643 19.08 12.2285L14.4746 16.9746C14.2561 17.3388 14.1406 17.7556 14.1406 18.1804V19.9141H10" stroke="black" stroke-miterlimit="10"/>
</g>
</svg>
