<svg width="16" height="19" viewBox="0 0 16 19" fill="none" xmlns="http://www.w3.org/2000/svg">
<path d="M2.66667 15.1665V7.6665C2.66667 6.34042 3.19345 5.06865 4.13113 4.13097C5.06881 3.19329 6.34058 2.6665 7.66667 2.6665C8.99275 2.6665 10.2645 3.19329 11.2022 4.13097C12.1399 5.06865 12.6667 6.34042 12.6667 7.6665V15.1665M2.66667 15.1665H12.6667M2.66667 15.1665H1M12.6667 15.1665H14.3333M6.83333 17.6665H8.5" stroke="#7AC0E0" stroke-width="2" stroke-linecap="round" stroke-linejoin="round"/>
<path d="M7.66659 2.66667C8.12682 2.66667 8.49992 2.29357 8.49992 1.83333C8.49992 1.3731 8.12682 1 7.66659 1C7.20635 1 6.83325 1.3731 6.83325 1.83333C6.83325 2.29357 7.20635 2.66667 7.66659 2.66667Z" stroke="#7AC0E0" stroke-width="2"/>
</svg>
