<svg width="41" height="40" viewBox="0 0 41 40" fill="none" xmlns="http://www.w3.org/2000/svg">
<rect width="40.8511" height="40" rx="6" fill="#242688"/>
<path d="M18.8268 19.6907L12.8502 14.0734C12.5376 13.7794 12 13.9878 12 14.4043V25.6391C12 26.0548 12.5367 26.2648 12.8502 25.9701L18.8268 20.3527C19.0213 20.1699 19.0213 19.8735 18.8268 19.6907ZM12.9961 24.509V15.5345L17.7703 20.0217L12.9961 24.509ZM28.1498 14.0734L22.1732 19.6907C21.9787 19.8736 21.9787 20.1699 22.1732 20.3528L28.1498 25.9702C28.4613 26.263 29 26.0575 29 25.6391V14.4043C29 13.9886 28.4632 13.7788 28.1498 14.0734ZM28.0039 24.509L23.2297 20.0217L28.0039 15.5345V24.509ZM20.5332 24.2348C20.2581 24.2348 20.0352 24.4444 20.0352 24.7029V26.5754C20.0352 26.8339 20.2581 27.0435 20.5332 27.0435C20.8083 27.0435 21.0312 26.8339 21.0312 26.5754V24.7029C21.0312 24.4444 20.8083 24.2348 20.5332 24.2348ZM20.5332 20.4899C20.2581 20.4899 20.0352 20.6994 20.0352 20.958V22.8304C20.0352 23.089 20.2581 23.2986 20.5332 23.2986C20.8083 23.2986 21.0312 23.089 21.0312 22.8304V20.958C21.0312 20.6994 20.8083 20.4899 20.5332 20.4899ZM20.5332 16.7449C20.2581 16.7449 20.0352 16.9545 20.0352 17.213V19.0855C20.0352 19.344 20.2581 19.5536 20.5332 19.5536C20.8083 19.5536 21.0312 19.344 21.0312 19.0855V17.213C21.0312 16.9545 20.8083 16.7449 20.5332 16.7449ZM20.5332 13C20.2581 13 20.0352 13.2096 20.0352 13.4681V15.3406C20.0352 15.5991 20.2581 15.8087 20.5332 15.8087C20.8083 15.8087 21.0312 15.5991 21.0312 15.3406V13.4681C21.0312 13.2096 20.8083 13 20.5332 13Z" fill="white" stroke="white" stroke-width="0.4"/>
</svg>
