<svg width="20" height="17" viewBox="0 0 20 17" fill="none" xmlns="http://www.w3.org/2000/svg">
<path d="M8.12991 8.10638L1.45022 1.42673C1.10084 1.07716 0.5 1.32494 0.5 1.82031V15.1797C0.5 15.6739 1.09987 15.9237 1.45022 15.5733L8.12991 8.89358C8.3473 8.6762 8.3473 8.32377 8.12991 8.10638ZM1.61328 13.8358V3.16415L6.94913 8.5L1.61328 13.8358ZM18.5498 1.42673L11.8701 8.10642C11.6527 8.3238 11.6527 8.67623 11.8701 8.89362L18.5498 15.5733C18.8979 15.9216 19.5 15.6771 19.5 15.1797V1.82031C19.5 1.32598 18.9001 1.07642 18.5498 1.42673ZM18.3867 13.8358L13.0509 8.5L18.3867 3.16415V13.8358ZM10.0371 13.5098C9.7297 13.5098 9.48047 13.759 9.48047 14.0664V16.293C9.48047 16.6004 9.7297 16.8496 10.0371 16.8496C10.3445 16.8496 10.5938 16.6004 10.5938 16.293V14.0664C10.5938 13.759 10.3445 13.5098 10.0371 13.5098ZM10.0371 9.05664C9.7297 9.05664 9.48047 9.30587 9.48047 9.61328V11.8398C9.48047 12.1473 9.7297 12.3965 10.0371 12.3965C10.3445 12.3965 10.5938 12.1473 10.5938 11.8398V9.61328C10.5938 9.30587 10.3445 9.05664 10.0371 9.05664ZM10.0371 4.60352C9.7297 4.60352 9.48047 4.85274 9.48047 5.16016V7.38672C9.48047 7.69413 9.7297 7.94336 10.0371 7.94336C10.3445 7.94336 10.5938 7.69413 10.5938 7.38672V5.16016C10.5938 4.85274 10.3445 4.60352 10.0371 4.60352ZM10.0371 0.150391C9.7297 0.150391 9.48047 0.399617 9.48047 0.707031V2.93359C9.48047 3.24101 9.7297 3.49023 10.0371 3.49023C10.3445 3.49023 10.5938 3.24101 10.5938 2.93359V0.707031C10.5938 0.399617 10.3445 0.150391 10.0371 0.150391Z" fill="white"/>
</svg>
