<svg width="42" height="40" viewBox="0 0 42 40" fill="none" xmlns="http://www.w3.org/2000/svg">
<rect x="0.5" width="40.8511" height="40" rx="6" fill="#0097DC"/>
<path d="M19.3268 19.6907L13.3502 14.0734C13.0376 13.7794 12.5 13.9878 12.5 14.4043V25.6391C12.5 26.0548 13.0367 26.2648 13.3502 25.9701L19.3268 20.3527C19.5213 20.1699 19.5213 19.8735 19.3268 19.6907ZM13.4961 24.509V15.5345L18.2703 20.0217L13.4961 24.509ZM28.6498 14.0734L22.6732 19.6907C22.4787 19.8736 22.4787 20.1699 22.6732 20.3528L28.6498 25.9702C28.9613 26.263 29.5 26.0575 29.5 25.6391V14.4043C29.5 13.9886 28.9632 13.7788 28.6498 14.0734ZM28.5039 24.509L23.7297 20.0217L28.5039 15.5345V24.509ZM21.0332 24.2348C20.7581 24.2348 20.5352 24.4444 20.5352 24.7029V26.5754C20.5352 26.8339 20.7581 27.0435 21.0332 27.0435C21.3083 27.0435 21.5312 26.8339 21.5312 26.5754V24.7029C21.5312 24.4444 21.3083 24.2348 21.0332 24.2348ZM21.0332 20.4899C20.7581 20.4899 20.5352 20.6994 20.5352 20.958V22.8304C20.5352 23.089 20.7581 23.2986 21.0332 23.2986C21.3083 23.2986 21.5312 23.089 21.5312 22.8304V20.958C21.5312 20.6994 21.3083 20.4899 21.0332 20.4899ZM21.0332 16.7449C20.7581 16.7449 20.5352 16.9545 20.5352 17.213V19.0855C20.5352 19.344 20.7581 19.5536 21.0332 19.5536C21.3083 19.5536 21.5312 19.344 21.5312 19.0855V17.213C21.5312 16.9545 21.3083 16.7449 21.0332 16.7449ZM21.0332 13C20.7581 13 20.5352 13.2096 20.5352 13.4681V15.3406C20.5352 15.5991 20.7581 15.8087 21.0332 15.8087C21.3083 15.8087 21.5312 15.5991 21.5312 15.3406V13.4681C21.5312 13.2096 21.3083 13 21.0332 13Z" fill="white" stroke="white" stroke-width="0.4"/>
</svg>
