<?xml version="1.0" encoding="utf-8"?>
<!-- Generator: Adobe Illustrator 26.0.1, SVG Export Plug-In . SVG Version: 6.00 Build 0)  -->
<svg version="1.1" id="Layer_1" xmlns="http://www.w3.org/2000/svg" xmlns:xlink="http://www.w3.org/1999/xlink" x="0px" y="0px"
	 viewBox="0 0 20 17" style="enable-background:new 0 0 20 17;" xml:space="preserve">
<path d="M8.1,8.1L1.5,1.4c-0.3-0.3-1-0.1-1,0.4v13.4c0,0.5,0.6,0.7,1,0.4l6.7-6.7C8.3,8.7,8.3,8.3,8.1,8.1z M1.6,13.8V3.2l5.3,5.3
	L1.6,13.8z M18.5,1.4l-6.7,6.7c-0.2,0.2-0.2,0.6,0,0.8l6.7,6.7c0.3,0.3,1,0.1,1-0.4V1.8C19.5,1.3,18.9,1.1,18.5,1.4z M18.4,13.8
	l-5.3-5.3l5.3-5.3V13.8z M10,13.5c-0.3,0-0.6,0.2-0.6,0.6v2.2c0,0.3,0.2,0.6,0.6,0.6s0.6-0.2,0.6-0.6v-2.2
	C10.6,13.8,10.3,13.5,10,13.5z M10,9.1c-0.3,0-0.6,0.2-0.6,0.6v2.2c0,0.3,0.2,0.6,0.6,0.6s0.6-0.2,0.6-0.6V9.6
	C10.6,9.3,10.3,9.1,10,9.1z M10,4.6c-0.3,0-0.6,0.2-0.6,0.6v2.2c0,0.3,0.2,0.6,0.6,0.6s0.6-0.2,0.6-0.6V5.2
	C10.6,4.9,10.3,4.6,10,4.6z M10,0.2c-0.3,0-0.6,0.2-0.6,0.6v2.2c0,0.3,0.2,0.6,0.6,0.6s0.6-0.2,0.6-0.6V0.7
	C10.6,0.4,10.3,0.2,10,0.2z"/>
</svg>
