<svg width="41" height="40" viewBox="0 0 41 40" fill="none" xmlns="http://www.w3.org/2000/svg">
<rect width="40.8511" height="40" rx="8" fill="url(#paint0_linear_33_2342)"/>
<path d="M14.0291 19.54C13.7157 19.54 13.4615 19.7933 13.4615 20.1066C13.4615 20.4199 13.7157 20.6732 14.0291 20.6732L16.1049 20.6741C16.4182 20.6741 16.6725 20.4199 16.6725 20.1066C16.6725 19.7933 16.4182 19.54 16.1059 19.54L14.0291 19.54ZM22.705 15.3469C22.4555 15.3469 22.2266 15.5139 22.1591 15.7672L20.7511 21.0202C20.6704 21.3223 20.8496 21.6337 21.1526 21.7144C21.1591 21.7162 24.9396 22.7293 24.9396 22.7293C24.9884 22.7425 25.0381 22.749 25.0859 22.749C25.3364 22.749 25.5662 22.5821 25.6337 22.3279C25.7153 22.0258 25.5352 21.7153 25.2332 21.6337L21.9932 20.766L23.2539 16.0607C23.3355 15.7578 23.1554 15.4473 22.8534 15.3666C22.8037 15.3535 22.7538 15.3469 22.705 15.3469ZM26.8662 22.0915C26.6157 22.0915 26.3868 22.2585 26.3193 22.5117C26.2377 22.8138 26.4178 23.1252 26.7198 23.2059C26.7686 23.219 26.8183 23.2256 26.8671 23.2256C27.1176 23.2256 27.3465 23.0586 27.414 22.8053C27.4956 22.5023 27.3155 22.1918 27.0134 22.1103V22.1112C26.9637 22.0971 26.9149 22.0915 26.8662 22.0915ZM11.1174 22.3757C10.8041 22.3757 10.5508 22.629 10.5508 22.9423C10.5508 23.2556 10.8041 23.5098 11.1174 23.5098H15.2843C15.5976 23.5098 15.8508 23.2556 15.8508 22.9423C15.8508 22.629 15.5976 22.3757 15.2843 22.3757H11.1174ZM21.6057 10.0002C21.3561 10.0002 21.1282 10.1671 21.0607 10.4195C20.9791 10.7215 21.1592 11.0329 21.4612 11.1136L23.2754 11.5995L23.0315 12.5066C22.449 12.3893 21.8674 12.333 21.2924 12.333C18.2061 12.333 15.3264 13.9643 13.7355 16.601H12.8415C12.5282 16.601 12.2749 16.8552 12.2749 17.1686C12.2749 17.4819 12.5282 17.7351 12.8415 17.7351H17.0084C17.3208 17.7351 17.575 17.4819 17.575 17.1686C17.575 16.8552 17.3208 16.601 17.0084 16.601L15.0985 16.602C16.5366 14.649 18.8404 13.467 21.2944 13.467C21.9538 13.467 22.6245 13.5523 23.2915 13.7306V13.7324C27.3983 14.8318 29.8343 19.052 28.7349 23.1588C27.8128 26.5976 24.7023 28.866 21.3038 28.866C20.6444 28.866 19.9737 28.7806 19.3067 28.6024C17.9025 28.2253 16.6933 27.4843 15.7544 26.5077H17.8856C18.198 26.5077 18.4522 26.2535 18.4522 25.9411C18.4522 25.6278 18.198 25.3736 17.8856 25.3736H12.3576C12.0443 25.3736 11.791 25.6278 11.791 25.9402C11.791 26.2535 12.0443 26.5077 12.3576 26.5077H14.2646C15.4081 28.0161 17.043 29.1699 19.0129 29.697C19.7783 29.9024 20.5475 30 21.3045 30C25.2039 30 28.7724 27.3979 29.8295 23.4524C31.0424 18.9253 28.5087 14.2774 24.1291 12.8L24.3711 11.893L26.1843 12.3798C26.234 12.3929 26.2828 12.3986 26.3316 12.3986C26.5821 12.3986 26.8109 12.2316 26.8794 11.9783C26.9601 11.6763 26.7809 11.3648 26.4779 11.2842L21.7548 10.0178V10.0197H21.752C21.7033 10.0066 21.6535 10.0002 21.6057 10.0002Z" fill="white"/>
<defs>
<linearGradient id="paint0_linear_33_2342" x1="0" y1="20" x2="40.8511" y2="20" gradientUnits="userSpaceOnUse">
<stop stop-color="#6FC282"/>
<stop offset="1" stop-color="#74C0EA"/>
</linearGradient>
</defs>
</svg>
